<svg data-name="Your Icons" id="Your_Icons" viewBox="0 0 48 48" width="32" height="32" fill="#657380">
<path d="M37,15H17.15l-1.27-3.64A5,5,0,0,0,11.16,8H8a1,1,0,0,0,0,2h3.16A3,3,0,0,1,14,12l1,3h0l2.43,6.89,2.69,7.75A5,5,0,0,0,24.85,33H30a1,1,0,0,0,0-2H24.85A3,3,0,0,1,22,29H32.77a6.07,6.07,0,0,0,5.94-4.74l1.22-5.63A3,3,0,0,0,37,15Zm1,3.2-1.22,5.63a4.08,4.08,0,0,1-4,3.17H21.35L19.3,21.2,17.84,17H37a1,1,0,0,1,.82.39A1,1,0,0,1,38,18.2Z"/>
<path d="M20,33a3,3,0,1,0,3,3A3,3,0,0,0,20,33Zm0,4a1,1,0,1,1,1-1A1,1,0,0,1,20,37Z"/>
<path d="M34,33a3,3,0,1,0,3,3A3,3,0,0,0,34,33Zm0,4a1,1,0,1,1,1-1A1,1,0,0,1,34,37Z"/>
</svg>