<svg width="154" height="53" viewBox="0 0 154 53" fill="none" xmlns="http://www.w3.org/2000/svg">
<path fill-rule="evenodd" clip-rule="evenodd" d="M19.3382 0.286133L0.422119 19.1813V51.7142L41.2606 51.6778L60.2279 32.9031L60.2461 0.980018V0.286133H19.3382Z" fill="#C4C4C4"/>
<path fill-rule="evenodd" clip-rule="evenodd" d="M113.414 24.4992L107.443 35.6807V23.8482H99.555V47.1064H106.906C107.359 47.1064 107.776 46.8643 107.999 46.4728L114.204 35.2822V47.1064H122.084V23.8482H114.516C114.056 23.8482 113.634 24.0977 113.414 24.4992ZM110.683 21.6596C106.69 21.6596 103.442 18.6444 103.442 14.7637H108.319C108.319 16.1782 108.996 17.4318 110.683 17.4318C112.43 17.4318 113.046 16.1782 113.046 14.7637H117.923C117.923 18.6444 114.675 21.6596 110.683 21.6596ZM74.3382 23.8482H68.1949H60.1527H53.9122V30.7989H60.0937V47.1064H68.1567V30.7989H74.3382V23.8482ZM90.3828 47.1065H98.0441L89.6555 24.5118C89.5075 24.1129 89.1252 23.8483 88.6977 23.8483H81.1068C80.6789 23.8483 80.297 24.1129 80.1486 24.5118L71.76 47.1065H79.4213C79.6487 47.1065 79.85 46.9611 79.9208 46.7465L80.7722 44.1656H89.0319L89.8833 46.7465C89.9541 46.9615 90.1554 47.1065 90.3828 47.1065ZM82.6239 38.3411L84.9018 31.4344L87.1802 38.3411H82.6239ZM145.247 24.4271L139.657 33.8581L134.066 24.4271C133.854 24.0683 133.466 23.8482 133.047 23.8482H125.681V47.1064H133.744V36.1239L137.332 41.9946C137.446 42.1807 137.649 42.2946 137.868 42.2946H141.448C141.667 42.2946 141.87 42.1807 141.984 41.9946L145.57 36.1239V47.1064H153.632V23.8482H146.266C145.847 23.8482 145.46 24.0683 145.247 24.4271ZM16.738 23.8383H24.5355V32.1293H30.9886V23.8383H38.7861V47.1068H30.9886V38.8158H24.5355V47.1068H16.738V23.8383ZM5.17627 47.1066H13.5115V23.838H5.17627V47.1066Z" fill="#657380"/>
</svg>
