<svg width="109" height="89" viewBox="0 0 109 89" fill="none" xmlns="http://www.w3.org/2000/svg">
<g clip-path="url(#clip0_12_17030)">
<path d="M26.9908 77.802V73.3671C27.0167 72.9941 26.9626 72.6199 26.8319 72.2694C26.7012 71.9189 26.4969 71.6002 26.2328 71.3344C25.9686 71.0687 25.6506 70.862 25.2999 70.7282C24.9492 70.5944 24.5739 70.5365 24.199 70.5584C23.7082 70.5263 23.2178 70.626 22.779 70.8471C22.3401 71.0681 21.9689 71.4023 21.7041 71.8149C21.4628 71.4147 21.1174 71.0868 20.7045 70.8656C20.2915 70.6445 19.8263 70.5383 19.3578 70.5584C18.9494 70.5378 18.5428 70.6239 18.1781 70.808C17.8134 70.9921 17.5034 71.2678 17.2788 71.6079V70.7358H15.7344V77.802H17.2936V73.9141C17.2605 73.6724 17.2813 73.4265 17.3548 73.1938C17.4282 72.9611 17.5523 72.7475 17.7183 72.5681C17.8843 72.3887 18.088 72.2481 18.315 72.1562C18.5419 72.0643 18.7865 72.0235 19.0311 72.0367C20.0558 72.0367 20.5755 72.7019 20.5755 73.8993V77.8315H22.1348V73.9141C22.103 73.6727 22.1248 73.4273 22.1987 73.1952C22.2726 72.9631 22.3968 72.75 22.5625 72.5709C22.7282 72.3919 22.9314 72.2512 23.1577 72.1589C23.384 72.0666 23.628 72.0248 23.8723 72.0367C24.9266 72.0367 25.4315 72.7019 25.4315 73.8993V77.8315L26.9908 77.802ZM50.0605 70.7358H47.5211V68.5923H45.9618V70.7358H44.5511V72.1401H45.9915V75.3924C45.9915 77.0332 46.6301 78.0089 48.4566 78.0089C49.1391 78.0112 49.8082 77.8216 50.3872 77.4619L49.9417 76.1463C49.5275 76.3922 49.0574 76.5295 48.5754 76.5454C47.8329 76.5454 47.5508 76.0724 47.5508 75.3628V72.1401H50.0753L50.0605 70.7358ZM63.2325 70.5584C62.856 70.5473 62.4834 70.6377 62.1541 70.8198C61.8248 71.0019 61.5509 71.2691 61.3614 71.5932V70.7358H59.8319V77.802H61.3763V73.8402C61.3763 72.6723 61.8812 72.0219 62.8613 72.0219C63.1916 72.0174 63.5196 72.0776 63.8265 72.1993L64.3017 70.721C63.949 70.5954 63.5774 70.5304 63.2028 70.5288L63.2325 70.5584ZM43.3185 71.2975C42.4443 70.7801 41.4392 70.5235 40.4227 70.5584C38.6259 70.5584 37.4527 71.4158 37.4527 72.8201C37.4527 73.9732 38.314 74.6828 39.903 74.9045L40.6455 75.008C41.4919 75.1263 41.8929 75.348 41.8929 75.7471C41.8929 76.2941 41.3286 76.6045 40.2742 76.6045C39.4261 76.629 38.5945 76.3686 37.9131 75.8654L37.1705 77.0628C38.0702 77.6881 39.1477 78.0094 40.2445 77.9793C42.2938 77.9793 43.4819 77.0185 43.4819 75.6732C43.4819 74.328 42.5463 73.781 41.0019 73.5593L40.2594 73.4558C39.5911 73.3671 39.0565 73.2341 39.0565 72.761C39.0565 72.288 39.5614 71.9332 40.4079 71.9332C41.1902 71.9422 41.9572 72.1509 42.6354 72.5393L43.3185 71.2975ZM84.6836 70.5584C84.307 70.5473 83.9344 70.6377 83.6051 70.8198C83.2758 71.0019 83.002 71.2691 82.8124 71.5932V70.7358H81.2829V77.802H82.8273V73.8402C82.8273 72.6723 83.3322 72.0219 84.3123 72.0219C84.6426 72.0174 84.9706 72.0776 85.2776 72.1993L85.7528 70.721C85.4001 70.5954 85.0285 70.5304 84.6539 70.5288L84.6836 70.5584ZM64.7844 74.2541C64.766 74.7506 64.852 75.2456 65.0368 75.7072C65.2216 76.1687 65.5011 76.5869 65.8576 76.9347C66.214 77.2826 66.6395 77.5526 67.1068 77.7273C67.574 77.9021 68.0728 77.9779 68.5712 77.9498C69.4985 77.9967 70.4098 77.6961 71.1254 77.1072L70.3829 75.8654C69.849 76.2707 69.198 76.4936 68.5266 76.5011C67.9557 76.4551 67.4232 76.1969 67.0349 75.7778C66.6465 75.3587 66.431 74.8094 66.431 74.2393C66.431 73.6692 66.6465 73.1199 67.0349 72.7008C67.4232 72.2817 67.9557 72.0235 68.5266 71.9775C69.198 71.985 69.849 72.2079 70.3829 72.6132L71.1254 71.3714C70.4098 70.7825 69.4985 70.4818 68.5712 70.5288C68.0728 70.5007 67.574 70.5765 67.1068 70.7512C66.6395 70.926 66.214 71.196 65.8576 71.5439C65.5011 71.8917 65.2216 72.3098 65.0368 72.7714C64.852 73.233 64.766 73.7279 64.7844 74.2245V74.2541ZM79.2484 74.2541V70.7358H77.704V71.5932C77.4417 71.2572 77.1029 70.9882 76.7156 70.8083C76.3283 70.6283 75.9036 70.5427 75.4765 70.5584C74.4918 70.5584 73.5475 70.9477 72.8513 71.6408C72.1551 72.3339 71.7639 73.2739 71.7639 74.2541C71.7639 75.2342 72.1551 76.1743 72.8513 76.8673C73.5475 77.5604 74.4918 77.9498 75.4765 77.9498C75.9036 77.9655 76.3283 77.8798 76.7156 77.6999C77.1029 77.52 77.4417 77.2509 77.704 76.915V77.7724H79.2484V74.2541ZM73.5014 74.2541C73.526 73.8381 73.6723 73.4385 73.9222 73.1042C74.1722 72.77 74.5148 72.5158 74.908 72.373C75.3012 72.2302 75.7278 72.205 76.1352 72.3005C76.5427 72.3959 76.9131 72.6079 77.201 72.9104C77.489 73.2128 77.6817 73.5924 77.7556 74.0025C77.8296 74.4127 77.7814 74.8353 77.617 75.2185C77.4527 75.6017 77.1793 75.9287 76.8307 76.1592C76.482 76.3897 76.0732 76.5137 75.6547 76.5158C75.3607 76.5195 75.0691 76.4627 74.7983 76.3487C74.5274 76.2348 74.2832 76.0663 74.081 75.8539C73.8787 75.6415 73.7228 75.3897 73.6231 75.1143C73.5233 74.839 73.4819 74.5461 73.5014 74.2541ZM54.8645 70.5584C53.8799 70.5721 52.941 70.9746 52.2545 71.6774C51.5681 72.3802 51.1901 73.3257 51.2039 74.3058C51.2177 75.286 51.6221 76.2205 52.328 76.9039C53.034 77.5873 53.9838 77.9635 54.9684 77.9498C56.0367 78.0044 57.0873 77.6619 57.9162 76.9889L57.1737 75.8506C56.5874 76.3187 55.861 76.5788 55.1095 76.5898C54.599 76.6335 54.0915 76.4772 53.6949 76.1542C53.2984 75.8312 53.044 75.367 52.9859 74.8602H58.2577C58.2577 74.668 58.2577 74.4758 58.2577 74.2689C58.2577 72.0514 56.8767 70.5732 54.8868 70.5732L54.8645 70.5584ZM54.8645 71.9332C55.0956 71.9283 55.3254 71.9687 55.5408 72.0523C55.7562 72.1358 55.9529 72.2608 56.1198 72.42C56.2867 72.5792 56.4204 72.7697 56.5133 72.9804C56.6062 73.1911 56.6565 73.4179 56.6613 73.648H52.9488C52.9757 73.1735 53.1881 72.7284 53.5406 72.4079C53.8931 72.0873 54.3577 71.917 54.8348 71.9332H54.8645ZM93.5565 74.2689V67.8975H92.0715V71.5932C91.8092 71.2572 91.4705 70.9882 91.0831 70.8083C90.6958 70.6283 90.2711 70.5427 89.844 70.5584C88.8594 70.5584 87.9151 70.9477 87.2188 71.6408C86.5226 72.3339 86.1314 73.2739 86.1314 74.2541C86.1314 75.2342 86.5226 76.1743 87.2188 76.8673C87.9151 77.5604 88.8594 77.9498 89.844 77.9498C90.2711 77.9655 90.6958 77.8798 91.0831 77.6999C91.4705 77.52 91.8092 77.2509 92.0715 76.915V77.7724H93.5565V74.2689ZM96.133 76.7745C96.2295 76.7734 96.3254 76.7909 96.4152 76.8263C96.5004 76.8609 96.5785 76.9111 96.6453 76.9741C96.7106 77.0378 96.7634 77.113 96.8013 77.1959C96.8389 77.2822 96.8583 77.3753 96.8583 77.4693C96.8583 77.5634 96.8389 77.6565 96.8013 77.7428C96.7634 77.8257 96.7106 77.9008 96.6453 77.9646C96.5785 78.0276 96.5004 78.0778 96.4152 78.1124C96.3263 78.1514 96.2302 78.1716 96.133 78.1715C95.9923 78.1705 95.8547 78.1296 95.7364 78.0537C95.6181 77.9778 95.5239 77.87 95.4648 77.7428C95.4276 77.6564 95.4084 77.5634 95.4084 77.4693C95.4084 77.3753 95.4276 77.2823 95.4648 77.1959C95.5026 77.113 95.5554 77.0378 95.6207 76.9741C95.6875 76.9111 95.7656 76.8609 95.8509 76.8263C95.9476 76.788 96.0513 76.7704 96.1553 76.7745H96.133ZM96.133 78.0237C96.2071 78.0241 96.2805 78.009 96.3483 77.9793C96.4122 77.951 96.4702 77.9108 96.5191 77.8611C96.612 77.7602 96.6635 77.6283 96.6635 77.4915C96.6635 77.3547 96.612 77.2228 96.5191 77.1219C96.4703 77.0721 96.4123 77.0319 96.3483 77.0037C96.2804 76.9742 96.2071 76.9591 96.133 76.9593C96.059 76.9597 95.9858 76.9748 95.9177 77.0037C95.851 77.0309 95.7904 77.0711 95.7395 77.1219C95.6466 77.2228 95.5951 77.3547 95.5951 77.4915C95.5951 77.6283 95.6466 77.7602 95.7395 77.8611C95.7905 77.9118 95.8511 77.9519 95.9177 77.9793C95.9926 78.0115 96.0738 78.0267 96.1553 78.0237H96.133ZM96.1776 77.1441C96.2469 77.1408 96.3152 77.1617 96.3706 77.2032C96.3933 77.222 96.4113 77.2458 96.4229 77.2728C96.4345 77.2998 96.4395 77.3292 96.4374 77.3585C96.4385 77.383 96.4344 77.4075 96.4255 77.4304C96.4165 77.4533 96.4029 77.4741 96.3855 77.4915C96.3424 77.5304 96.2875 77.5538 96.2295 77.558L96.4449 77.802H96.2741L96.0736 77.558H96.0068V77.802H95.8657V77.1515L96.1776 77.1441ZM96.0142 77.2698V77.4472H96.1776C96.2066 77.4558 96.2376 77.4558 96.2667 77.4472C96.2719 77.4368 96.2746 77.4255 96.2746 77.4139C96.2746 77.4024 96.2719 77.391 96.2667 77.3806C96.2719 77.3703 96.2746 77.3589 96.2746 77.3474C96.2746 77.3358 96.2719 77.3244 96.2667 77.3141C96.2376 77.3055 96.2066 77.3055 96.1776 77.3141L96.0142 77.2698ZM87.8466 74.2689C87.8713 73.8529 88.0175 73.4532 88.2675 73.119C88.5174 72.7848 88.8601 72.5306 89.2533 72.3878C89.6465 72.245 90.073 72.2198 90.4805 72.3153C90.8879 72.4107 91.2584 72.6227 91.5463 72.9252C91.8342 73.2276 92.027 73.6072 92.1009 74.0173C92.1748 74.4274 92.1266 74.8501 91.9623 75.2333C91.7979 75.6165 91.5246 75.9435 91.1759 76.174C90.8272 76.4045 90.4184 76.5285 89.9999 76.5306C89.7059 76.5343 89.4143 76.4774 89.1435 76.3635C88.8727 76.2496 88.6284 76.0811 88.4262 75.8687C88.224 75.6562 88.0681 75.4044 87.9683 75.1291C87.8686 74.8538 87.8271 74.5609 87.8466 74.2689ZM35.7004 74.2689V70.7358H34.156V71.5932C33.8937 71.2572 33.5549 70.9882 33.1676 70.8083C32.7803 70.6283 32.3556 70.5427 31.9284 70.5584C30.9438 70.5584 29.9995 70.9477 29.3033 71.6408C28.6071 72.3339 28.2159 73.2739 28.2159 74.2541C28.2159 75.2342 28.6071 76.1743 29.3033 76.8673C29.9995 77.5604 30.9438 77.9498 31.9284 77.9498C32.3556 77.9655 32.7803 77.8798 33.1676 77.6999C33.5549 77.52 33.8937 77.2509 34.156 76.915V77.7724H35.7004V74.2689ZM29.9534 74.2689C29.978 73.8529 30.1243 73.4532 30.3742 73.119C30.6242 72.7848 30.9668 72.5306 31.36 72.3878C31.7532 72.245 32.1798 72.2198 32.5872 72.3153C32.9946 72.4107 33.3651 72.6227 33.653 72.9252C33.9409 73.2276 34.1337 73.6072 34.2076 74.0173C34.2815 74.4274 34.2334 74.8501 34.069 75.2333C33.9047 75.6165 33.6313 75.9435 33.2826 76.174C32.934 76.4045 32.5252 76.5285 32.1067 76.5306C31.8114 76.5364 31.5182 76.481 31.2456 76.368C30.973 76.255 30.727 76.0869 30.5231 75.8742C30.3193 75.6615 30.162 75.409 30.0614 75.1327C29.9608 74.8563 29.9189 74.5622 29.9385 74.2689H29.9534Z" fill="#231F20"/>
<path d="M66.1936 16.8896H42.8047V58.7324H66.1936V16.8896Z" fill="#FF5F00"/>
<path d="M44.2896 37.8145C44.2853 33.7841 45.2022 29.8056 46.9711 26.1803C48.7399 22.5549 51.3142 19.3778 54.499 16.8894C50.5557 13.8044 45.82 11.886 40.8332 11.3535C35.8464 10.821 30.8097 11.6958 26.2987 13.878C21.7878 16.0603 17.9846 19.4619 15.3238 23.694C12.663 27.9261 11.252 32.8181 11.252 37.8108C11.252 42.8034 12.663 47.6954 15.3238 51.9275C17.9846 56.1597 21.7878 59.5612 26.2987 61.7435C30.8097 63.9257 35.8464 64.8006 40.8332 64.2681C45.82 63.7356 50.5557 61.8172 54.499 58.7322C51.3152 56.2445 48.7415 53.0685 46.9727 49.4446C45.2039 45.8206 44.2864 41.8435 44.2896 37.8145Z" fill="#EB001B"/>
<path d="M97.751 37.8146C97.7509 42.8076 96.3396 47.6999 93.6783 51.9322C91.017 56.1645 87.2132 59.566 82.7017 61.7479C78.1902 63.9298 73.153 64.8041 68.1659 64.2709C63.1788 63.7376 58.4431 61.8183 54.5 58.7323C57.6826 56.2425 60.2556 53.0656 62.0248 49.4414C63.7941 45.8172 64.7134 41.8404 64.7134 37.8109C64.7134 33.7814 63.7941 29.8046 62.0248 26.1804C60.2556 22.5562 57.6826 19.3794 54.5 16.8895C58.4431 13.8035 63.1788 11.8842 68.1659 11.3509C73.153 10.8177 78.1902 11.692 82.7017 13.8739C87.2132 16.0558 91.017 19.4573 93.6783 23.6896C96.3396 27.9219 97.7509 32.8142 97.751 37.8072V37.8146Z" fill="#F79E1B"/>
<path d="M95.1967 54.2975V53.4401H95.5457V53.2627H94.6621V53.4401H95.0408V54.2975H95.1967ZM96.9119 54.2975V53.2627H96.6446L96.3328 54.0018L96.0209 53.2627H95.7833V54.2975H95.9763V53.5214L96.2659 54.194H96.4664L96.756 53.5214V54.3049L96.9119 54.2975Z" fill="#F79E1B"/>
</g>
<defs>
<clipPath id="clip0_12_17030">
<rect width="109" height="89" fill="white"/>
</clipPath>
</defs>
</svg>
