<svg width="164" height="59" viewBox="0 0 164 59" fill="none" xmlns="http://www.w3.org/2000/svg">
<g clip-path="url(#clip0_12_15585)">
<path fill-rule="evenodd" clip-rule="evenodd" d="M71.791 10.0088C71.791 10.0088 71.791 10.0088 75.2405 10.0088C76.4974 10.0088 77.1306 10.6343 77.1306 12.0465C77.1306 12.0465 77.1306 12.0465 77.1306 17.0509C77.1306 17.0509 77.1306 17.0509 83.8877 17.0509C83.8877 17.0509 83.8877 17.0509 83.8877 12.0465C83.8877 10.6343 84.5115 10.0088 85.929 10.0088C85.929 10.0088 85.929 10.0088 89.2273 10.0088C89.2273 10.0088 89.2273 10.0088 89.2273 13.2976C89.2273 13.2976 89.2273 13.2976 87.8191 13.2976L87.6585 13.4588C87.6585 13.4588 87.6585 13.4587 87.6585 27.5429C87.6585 27.5429 87.6585 27.5429 83.8877 27.5429C83.8877 27.5429 83.8877 27.5429 83.8877 20.5008C83.8877 20.5008 83.8877 20.5008 77.1306 20.5008C77.1306 20.5008 77.1306 20.5008 77.1306 27.5429C77.1306 27.5429 77.1306 27.5429 73.3598 27.5429C73.3598 27.5429 73.3598 27.5429 73.3598 13.4588C73.3598 13.4588 73.3598 13.2976 73.1991 13.2976C73.1991 13.2976 73.1991 13.2976 71.791 13.2976C71.791 13.2976 71.791 13.2976 71.791 10.0088Z" fill="#657380"/>
<path fill-rule="evenodd" clip-rule="evenodd" d="M99.122 9.6958L99.2071 9.70528V13.3164L99.122 13.2974C96.2963 13.2974 94.0944 15.6479 94.0944 18.624C94.0944 21.7517 96.2963 24.2539 99.122 24.2539L99.2071 24.2349V27.846L99.122 27.8555C94.0944 27.8555 90.0117 23.7895 90.0117 18.624C90.0117 13.6102 94.0944 9.6958 99.122 9.6958Z" fill="#657380"/>
<path fill-rule="evenodd" clip-rule="evenodd" d="M99.207 9.70557L100.955 9.87617C105.104 10.6913 108.232 14.236 108.232 18.6243C108.232 23.1358 105.104 26.8227 100.955 27.6662L99.207 27.8463V24.2352L101.125 23.8182C102.978 22.9652 104.31 20.9653 104.31 18.6243C104.31 16.3875 102.978 14.5109 101.125 13.7147L99.207 13.3167V9.70557Z" fill="#657380"/>
<path fill-rule="evenodd" clip-rule="evenodd" d="M109.017 10.0088C109.017 10.0088 109.017 10.0088 114.281 10.0088H116.795V13.2976H116.558C116.247 13.2976 115.613 13.2976 114.356 13.2976C114.356 13.2976 114.356 13.2976 114.356 16.8992C114.356 16.8992 114.356 16.8992 115.424 16.8992H116.795V20.0269H115.991C115.594 20.0269 115.065 20.0269 114.356 20.0269C114.356 20.0269 114.356 20.0269 114.356 23.9413C114.356 24.1024 114.356 24.1024 114.517 24.1024C114.517 24.1024 114.517 24.1024 115.642 24.1024H116.795V27.5429H116.464C115.897 27.5429 114.753 27.5429 112.476 27.5429C111.219 27.5429 110.595 26.9174 110.595 25.5052V13.2976C110.595 13.2976 110.595 13.2976 109.017 13.2976C109.017 13.2976 109.017 13.2976 109.017 10.0088Z" fill="#657380"/>
<path fill-rule="evenodd" clip-rule="evenodd" d="M116.795 10.0088H116.87C120.329 10.0088 122.371 11.8854 122.371 14.7098C122.371 16.4253 121.586 17.5248 120.802 18.3114C122.219 18.937 123.155 20.5008 123.155 22.2163C123.155 25.5052 120.641 27.5429 117.031 27.5429C117.031 27.5429 117.031 27.5429 116.965 27.5429H116.795V24.1024H117.182C118.439 24.1024 119.233 23.3158 119.233 22.0647C119.233 20.8136 118.439 20.0269 117.182 20.0269C117.182 20.0269 117.182 20.0269 116.832 20.0269H116.795V16.8992H116.87C117.976 16.8992 118.6 16.1126 118.6 15.0226C118.6 13.9232 117.976 13.2976 116.87 13.2976C116.87 13.2976 116.87 13.2976 116.832 13.2976H116.795V10.0088Z" fill="#657380"/>
<path fill-rule="evenodd" clip-rule="evenodd" d="M130.384 10.0088C130.384 10.0088 130.384 10.0088 131.972 10.0088H132.265V15.0226C132.114 15.3354 131.953 15.7998 131.953 16.2737C131.953 16.2737 131.953 16.2737 130.696 19.8753C130.696 19.8753 130.696 19.8753 132.029 19.8753H132.265V23.1547H131.415C130.933 23.1547 130.384 23.1547 129.761 23.1547C129.761 23.1547 129.761 23.1547 128.655 25.9791C128.343 27.069 127.719 27.5429 126.462 27.5429C126.462 27.5429 126.462 27.5429 124.1 27.5429C124.1 27.5429 124.1 27.5429 124.1 24.1024C124.1 24.1024 124.1 24.1024 124.884 24.1024C125.206 24.1024 125.206 24.1024 125.357 23.9413C125.357 23.9413 125.357 23.9413 130.384 10.0088Z" fill="#657380"/>
<path fill-rule="evenodd" clip-rule="evenodd" d="M132.265 10.0088H134.155C134.155 10.0088 134.155 10.0088 139.183 23.9413C139.334 24.1024 139.334 24.1024 139.646 24.1024C139.646 24.1024 139.646 24.1024 140.279 24.1024C140.279 24.1024 140.279 24.1024 140.279 27.5429C140.279 27.5429 140.279 27.5429 138.077 27.5429C136.82 27.5429 136.196 27.069 135.875 25.8179C135.875 25.8179 135.875 25.8179 134.779 23.1547C134.779 23.1547 134.779 23.1547 132.662 23.1547H132.265V19.8753H133.834C133.834 19.8753 133.834 19.8753 132.586 16.2737C132.586 15.7998 132.426 15.3354 132.265 15.0226V10.0088Z" fill="#657380"/>
<path fill-rule="evenodd" clip-rule="evenodd" d="M71.791 32.5474C71.791 32.5474 71.791 32.5474 85.4565 32.5474C86.7134 32.5474 87.4978 33.1729 87.4978 34.5851C87.4978 34.5851 87.4978 34.5851 87.4978 46.4799C87.4978 46.6315 87.4978 46.6315 87.6585 46.6315C87.6585 46.6315 87.6585 46.6315 88.9154 46.6315C88.9154 46.6315 88.9154 46.6315 88.9154 50.0815C88.9154 50.0815 88.9154 50.0815 85.6172 50.0815C84.1996 50.0815 83.5758 49.456 83.5758 48.0438C83.5758 48.0438 83.5758 48.0437 83.5758 35.9973C83.5758 35.9973 83.5758 35.8362 83.4152 35.8362C83.4152 35.8362 83.4152 35.8362 77.1306 35.8362C77.1306 35.8362 77.1306 35.8362 77.1306 50.0815C77.1306 50.0815 77.1306 50.0815 73.3598 50.0815C73.3598 50.0815 73.3598 50.0815 73.3598 35.8362C73.3598 35.8362 73.3598 35.8362 71.791 35.8362C71.791 35.8362 71.791 35.8362 71.791 32.5474Z" fill="#657380"/>
<path fill-rule="evenodd" clip-rule="evenodd" d="M98.8102 32.2344L98.8858 32.2439V35.8549L98.8102 35.836C95.975 35.836 93.7825 38.1865 93.7825 41.1626C93.7825 44.2903 95.975 46.7925 98.8102 46.7925L98.8858 46.7735V50.3846L98.8102 50.3941C93.7825 50.3941 89.8511 46.3186 89.8511 41.1626C89.8511 36.1488 93.7825 32.2344 98.8102 32.2344Z" fill="#657380"/>
<path fill-rule="evenodd" clip-rule="evenodd" d="M98.8857 32.2437L100.691 32.4143C104.915 33.2294 107.92 36.7741 107.92 41.1624C107.92 45.6739 104.915 49.3608 100.691 50.2043L98.8857 50.3844V46.7733L100.88 46.3563C102.76 45.5033 103.998 43.5034 103.998 41.1624C103.998 38.9256 102.76 37.049 100.88 36.2528L98.8857 35.8547V32.2437Z" fill="#657380"/>
<path fill-rule="evenodd" clip-rule="evenodd" d="M108.705 32.5474C108.705 32.5474 108.705 32.5474 112.164 32.5474C113.421 32.5474 114.044 33.1729 114.044 34.5851C114.044 34.5851 114.044 34.5851 114.044 46.4799C114.044 46.6315 114.044 46.6315 114.205 46.6315C114.205 46.6315 114.205 46.6315 118.76 46.6315C118.76 46.6315 118.76 46.6315 118.76 32.5474C118.76 32.5474 118.76 32.5474 122.531 32.5474C122.531 32.5474 122.531 32.5474 122.531 46.6315C122.531 46.6315 122.531 46.6315 127.086 46.6315C127.247 46.6315 127.247 46.6315 127.247 46.4799C127.247 46.4799 127.247 46.4799 127.247 34.5851C127.247 33.1729 127.871 32.5474 129.127 32.5474C129.127 32.5474 129.127 32.5474 132.586 32.5474C132.586 32.5474 132.586 32.5474 132.586 35.8362C132.586 35.8362 132.586 35.8362 131.169 35.8362C131.008 35.8362 131.008 35.9973 131.008 35.9973C131.008 35.9973 131.008 35.9973 131.008 48.0438C131.008 49.456 130.384 50.0815 129.127 50.0815C129.127 50.0815 129.127 50.0815 112.315 50.0815C110.907 50.0815 110.274 49.456 110.274 48.0438C110.274 48.0438 110.274 48.0437 110.274 35.9973C110.274 35.9973 110.274 35.8362 110.122 35.8362C110.122 35.8362 110.122 35.8362 108.705 35.8362C108.705 35.8362 108.705 35.8362 108.705 32.5474Z" fill="#657380"/>
<path fill-rule="evenodd" clip-rule="evenodd" d="M135.563 32.5474C135.563 32.5474 135.563 32.5474 147.348 32.5474C148.766 32.5474 149.238 33.1729 149.238 34.424C149.238 34.424 149.238 34.424 149.238 37.4001H145.779C145.779 37.4001 145.779 37.4001 145.779 35.9973C145.779 35.8362 145.779 35.8362 145.619 35.8362C145.619 35.8362 145.619 35.8362 143.426 35.8362C143.426 35.8362 143.426 35.8362 143.426 50.0815C143.426 50.0815 143.426 50.0815 139.646 50.0815C139.646 50.0815 139.646 50.0815 139.646 35.8362C139.646 35.8362 139.646 35.8362 137.453 35.8362C137.293 35.8362 137.293 35.8362 137.293 35.9973C137.293 35.9973 137.293 35.9973 137.293 37.4001C137.293 37.4001 137.293 37.4001 133.834 37.4001C133.834 37.4001 133.834 37.4001 133.834 34.424C133.834 33.1729 134.306 32.5474 135.563 32.5474Z" fill="#657380"/>
<path fill-rule="evenodd" clip-rule="evenodd" d="M154.105 32.5474C154.105 32.5474 154.105 32.5474 155.693 32.5474H155.986V37.5612C155.825 37.8739 155.674 38.3384 155.674 38.8123C155.674 38.8123 155.674 38.8123 154.417 42.4139C154.417 42.4139 154.417 42.4139 155.74 42.4139H155.986V45.6932H155.136C154.654 45.6932 154.105 45.6932 153.472 45.6932C153.472 45.6932 153.472 45.6932 152.376 48.3565C152.064 49.6076 151.431 50.0815 150.174 50.0815C150.174 50.0815 150.174 50.0815 147.821 50.0815C147.821 50.0815 147.821 50.0815 147.821 46.6315C147.821 46.6315 147.821 46.6315 148.605 46.6315C148.927 46.6315 148.927 46.6315 149.078 46.4799C149.078 46.4799 149.078 46.4799 154.105 32.5474Z" fill="#657380"/>
<path fill-rule="evenodd" clip-rule="evenodd" d="M155.986 32.5474H157.867C157.867 32.5474 157.866 32.5474 162.904 46.4799C163.055 46.6315 163.055 46.6315 163.376 46.6315H164C164 46.6315 164 46.6315 164 50.0815C164 50.0815 164 50.0815 161.798 50.0815C160.541 50.0815 159.917 49.6076 159.596 48.3565C159.596 48.3565 159.596 48.3565 158.5 45.6932C158.5 45.6932 158.5 45.6932 156.383 45.6932H155.986V42.4139H157.555C157.555 42.4139 157.555 42.4139 156.298 38.8123C156.298 38.3384 156.146 37.8739 155.986 37.5612V32.5474Z" fill="#657380"/>
<path fill-rule="evenodd" clip-rule="evenodd" d="M47.5789 17.4677C47.7584 17.4108 47.9947 17.5246 48.2309 17.8373C48.2309 17.8373 48.2309 17.8373 58.9101 28.3199C59.5338 28.9455 59.5338 29.8932 58.9101 30.3577C58.9101 30.3577 58.9101 30.3577 48.2309 41.0014C47.9947 41.3141 47.7584 41.39 47.5789 41.2952C47.3993 41.2004 47.2859 40.9255 47.2859 40.5275V18.1501C47.2859 17.7615 47.3993 17.5246 47.5789 17.4677Z" fill="#657380"/>
<path fill-rule="evenodd" clip-rule="evenodd" d="M29.3108 0H30.0668L30.7945 0.303294C30.7945 0.303294 30.7945 0.303294 41.7855 11.2598C42.258 11.8853 42.0974 12.3592 41.313 12.3592C41.313 12.3592 41.313 12.3592 36.7578 12.3592C35.9734 12.3592 35.3497 12.9847 35.3497 13.7714C35.3497 13.7714 35.3497 13.7714 35.3497 21.9035C35.3497 22.6901 34.7165 23.3157 33.7714 23.3157C33.7714 23.3157 33.7714 23.3157 25.7668 23.3157C24.9824 23.3157 24.3493 22.6901 24.3493 21.9035C24.3493 21.9035 24.3493 21.9035 24.3493 13.7714C24.3493 12.9847 23.7255 12.3592 22.9317 12.3592H18.0646C17.2802 12.3592 17.1196 11.8853 17.5921 11.2598C17.5921 11.2598 17.5921 11.2598 28.5926 0.303294L29.3108 0Z" fill="#657380"/>
<path fill-rule="evenodd" clip-rule="evenodd" d="M12.092 17.231C12.2904 17.3258 12.4133 17.6007 12.4133 17.9988V40.8405C12.4133 41.2386 12.2904 41.4755 12.092 41.5514C11.903 41.6272 11.6289 41.5514 11.3076 41.3144C11.3076 41.3144 11.3076 41.3144 0.467802 30.358C-0.155934 29.8935 -0.155934 28.9457 0.467802 28.3202C0.467802 28.3202 0.467803 28.3202 11.3076 17.5249C11.6289 17.2121 11.903 17.1363 12.092 17.231Z" fill="#657380"/>
<path fill-rule="evenodd" clip-rule="evenodd" d="M25.7667 35.2104C25.7667 35.2104 25.7667 35.2104 33.7714 35.2104C34.7164 35.2104 35.3496 35.836 35.3496 36.6227C35.3496 36.6227 35.3496 36.6227 35.3496 45.2286C35.3496 46.1669 35.9733 46.7925 36.7577 46.7925H41.001C41.7854 46.7925 42.0973 47.2569 41.4736 47.7308C41.4736 47.7308 41.4736 47.7308 30.7944 58.5261C30.4731 58.8389 30.0856 59 29.6887 59C29.3012 59 28.9043 58.8389 28.5925 58.5261C28.5925 58.5261 28.5925 58.5261 17.9133 47.7308C17.2802 47.2569 17.592 46.7925 18.3764 46.7925C18.3764 46.7925 18.3764 46.7925 22.9316 46.7925C23.7254 46.7925 24.3492 46.1669 24.3492 45.2286C24.3492 45.2286 24.3492 45.2286 24.3492 36.6227C24.3492 35.836 24.9824 35.2104 25.7667 35.2104Z" fill="#657380"/>
</g>
<defs>
<clipPath id="clip0_12_15585">
<rect width="164" height="59" fill="white"/>
</clipPath>
</defs>
</svg>
