<svg width="109" height="89" viewBox="0 0 109 89" fill="none" xmlns="http://www.w3.org/2000/svg">
<g clip-path="url(#clip0_12_17041)">
<path d="M45.2408 30L40.4227 59.9822H48.1237L52.9388 30H45.2408ZM68.4698 42.2131C65.7787 40.8841 64.1289 39.9871 64.1289 38.6279C64.1618 37.3921 65.524 36.1259 68.5659 36.1259C71.0679 36.0631 72.9068 36.6511 74.3019 37.2361L75.0008 37.548L76.0478 31.275C74.5267 30.687 72.1149 30.0392 69.1358 30.0392C61.5309 30.0392 56.1758 33.9931 56.1426 39.6482C56.0798 43.8214 59.9765 46.1371 62.8927 47.5263C65.8718 48.9513 66.8859 49.8752 66.8859 51.1414C66.853 53.0853 64.477 53.9822 62.26 53.9822C59.1881 53.9822 57.538 53.5203 55.0331 52.4371L54.019 51.9751L52.9421 58.4943C54.7511 59.2984 58.078 60.0062 61.5312 60.0424C69.6132 60.0424 74.8722 56.1483 74.9383 50.1214C74.9646 46.8152 72.9098 44.283 68.4698 42.2131ZM95.7908 30.0928H89.8326C87.9966 30.0928 86.6015 30.6209 85.8066 32.5049L74.3674 59.9822H82.4495L84.6754 54.0332H93.7175L94.8724 60.0062H102.001L95.7908 30.0928ZM86.9167 48.0297C87.0727 48.0448 90.0189 38.3186 90.0189 38.3186L92.3649 48.0297C92.3649 48.0297 88.4379 48.0297 86.9167 48.0297ZM33.9878 30L26.4428 50.3701L25.6208 46.3529C24.2257 41.7179 19.8519 36.681 14.9707 34.179L21.8797 59.9522H30.0279L42.136 30.0033H33.9878V30Z" fill="#2394BC"/>
<path d="M23.0821 33.8677C22.4941 31.5816 20.6189 30.0397 18.0722 30.0068H6.12306L6 30.5616C15.3212 32.8596 23.1449 39.9305 25.6831 46.5815L23.0821 33.8677Z" fill="#EFC75E"/>
</g>
<defs>
<clipPath id="clip0_12_17041">
<rect width="109" height="89" fill="white"/>
</clipPath>
</defs>
</svg>
